<svg xmlns="http://www.w3.org/2000/svg" version="1.1" xmlns:xlink="http://www.w3.org/1999/xlink" xmlns:svgjs="http://svgjs.com/svgjs" width="1440" height="560" preserveAspectRatio="none" viewBox="0 0 1440 560"><g mask="url(&quot;#SvgjsMask1000&quot;)" fill="none"><rect width="1440" height="560" x="0" y="0" fill="#0e2a47"></rect><path d="M 0,36 C 57.6,108.4 172.8,357.8 288,398 C 403.2,438.2 460.8,235 576,237 C 691.2,239 748.8,441 864,408 C 979.2,375 1036.8,64.6 1152,72 C 1267.2,79.4 1382.4,370.4 1440,445L1440 560L0 560z" fill="#184a7e"></path><path d="M 0,491 C 96,432 288,212.8 480,196 C 672,179.2 768,430 960,407 C 1152,384 1344,146.2 1440,81L1440 560L0 560z" fill="#2264ab"></path></g><defs><mask id="SvgjsMask1000"><rect width="1440" height="560" fill="#ffffff"></rect></mask></defs></svg>